<?xml version="1.0" encoding="UTF-8"?>
<!-- Generator: Adobe Illustrator 26.0.0, SVG Export Plug-In . SVG Version: 6.00 Build 0)  -->
<svg xmlns="http://www.w3.org/2000/svg" xmlns:xlink="http://www.w3.org/1999/xlink" version="1.1" id="图层_1" x="0px" y="0px" viewBox="0 0 531.9 88.3" style="enable-background:new 0 0 531.9 88.3;" xml:space="preserve">
<style type="text/css">
	.st0{fill:#2570AE;}
	.st1{fill:#FFFFFF;}
</style>
<g>
	<g>
		<path class="st0" d="M82,44.2C82,66.4,64,84.5,41.7,84.5c-22.3,0-40.3-18.1-40.3-40.3c0-22.3,18.1-40.3,40.3-40.3    C64,3.8,82,21.9,82,44.2"></path>
		<polygon class="st1" points="13.5,31.6 22.4,31 13.4,73.1 78.8,50 35.6,58.9 62.6,36.2 29.8,55.5 50.5,24.6 24.3,52.4 26.4,26.3       "></polygon>
	</g>
	<g>
		<g>
			<path class="st0" d="M125.9,31.2l-2.7,11.4h15c2.4-0.1,3.8-0.2,4.2-0.2c0.9-0.1,2-0.4,3.3-0.8l-2.4,9.9c-1-0.4-1.8-0.7-2.4-0.8     c-0.6-0.1-1.7-0.2-3.1-0.2h-16.4l-3.5,14.5c-0.3,1.2-0.4,2.5-0.4,3.8c0,0.8,0.1,1.6,0.4,2.5H98c0.6-0.9,1-1.6,1.2-2     c0.7-1.3,1.4-3.3,2-6.2l8-33.6c0.3-1.2,0.4-2.4,0.4-3.8c0-0.7-0.1-1.6-0.4-2.5h39.5l-1,9.4c-0.7-0.6-1.6-1-2.7-1.2     c-1-0.2-2.4-0.2-4.1-0.2H125.9z"></path>
		</g>
		<g>
			<path class="st0" d="M169.3,30.2l-2.4,10.2h14.3c1.5,0,2.7-0.2,3.8-0.6l-2,8.4c-1-0.6-2.5-0.9-4.5-0.9h-13.3l-2.6,10.9h15.1     c1.5,0,2.9-0.3,4.1-0.9L179,65h-33.9c0.5-0.8,0.8-1.4,1-1.8c0.6-1.1,1.2-2.9,1.8-5.4l6.9-29.1c0.2-1,0.4-2.1,0.4-3.3     c0-0.6-0.1-1.4-0.4-2.2H189l-0.9,7.9c-0.8-0.5-1.5-0.7-2-0.9c-0.6-0.1-1.5-0.2-2.6-0.2H169.3z"></path>
			<path class="st0" d="M224.9,23.3l6.7,34.9c0.4,1.8,0.7,3.2,1.1,4.3c0.3,0.9,0.9,1.7,1.6,2.6h-18.1c0.6-1.3,0.9-2.3,0.9-3.2     c0-1-0.1-2.3-0.4-3.8l-0.8-4.3h-18l-4.4,7c-0.8,1.3-1.2,2.4-1.2,3.3c0,0.2,0,0.6,0.1,1h-10.3c1.5-1.3,3.1-3.3,4.8-5.9l20.8-33.5     c-0.5-0.7-1-1.2-1.4-1.4c-0.3-0.3-0.9-0.6-1.8-0.9H224.9z M214.7,47.2l-3-16l-9.8,16H214.7z"></path>
			<path class="st0" d="M282.6,23.3l-0.8,8.6c-0.8-0.6-1.5-1.1-2.2-1.3c-1-0.3-2.3-0.5-3.7-0.5h-13.5c-0.8,0-1.4,0.1-1.8,0.2     c-0.7,0.2-1.2,1-1.5,2.2c-0.3,1.2-0.5,2-0.5,2.3c0,1,0.8,1.5,2.3,1.5h11.7c2,0,3.5,0.4,4.4,1.3c1.2,1.2,1.8,2.6,1.8,4.3     c0,0.8-0.2,1.9-0.5,3.3l-2.5,10.6c-0.5,2.2-1,3.7-1.4,4.5c-0.7,1.5-1.8,2.7-3.6,3.6c-1.1,0.6-2.8,0.9-5.1,1l-2.8,0h-25.4l1.1-8.4     c0.8,0.5,1.4,0.9,2,1.1c0.8,0.3,1.6,0.4,2.3,0.5c0.1,0,0.9,0,2.5,0h12.5c1.2,0,2-0.1,2.3-0.4c0.4-0.3,0.8-1.1,1-2.3     c0.2-0.9,0.3-1.5,0.3-1.9c0-1-0.7-1.5-2.1-1.5l-1.6,0h-9.3c-2.1,0-3.7-0.3-4.8-1c-1.6-1-2.4-2.5-2.4-4.7c0-1.1,0.3-2.8,0.8-4.9     l2.3-9.6c0.3-1.5,0.7-2.6,1-3.3c1.1-2.1,2.8-3.6,5-4.6c1.2-0.5,2.9-0.7,5.1-0.7H282.6z"></path>
			<path class="st0" d="M308.5,41.7l10.2-13.2c1-1.3,1.6-2.4,1.9-3.3c0.1-0.4,0.3-1,0.5-1.9h10.2c-1.3,1.2-2.3,2.3-3.1,3.1     c-0.6,0.7-1.6,2-3,3.9l-14.7,19.3l-2.4,9.8c-0.2,1.1-0.4,2.2-0.4,3.3c0,0.6,0.1,1.3,0.4,2.2h-17.2c0.5-0.8,0.8-1.4,1-1.8     c0.6-1.1,1.2-2.9,1.8-5.4l2-8.4l-5.9-19.8c-0.7-2.2-1.8-4.3-3.4-6.4h18.4c-0.4,0.9-0.6,1.8-0.6,2.6c0,1.3,0.2,2.8,0.7,4.3     L308.5,41.7z"></path>
			<path class="st0" d="M368.1,23.3l-0.8,8.1c-1-0.5-1.7-0.8-2.2-0.9c-0.7-0.2-1.7-0.3-3-0.3h-10.2c-1.7,0-2.9,0.2-3.3,0.5     c-0.5,0.4-1,1.3-1.3,2.6l-5,21c-0.2,0.9-0.3,1.6-0.3,1.9c0,0.9,0.4,1.5,1.3,1.7c0.4,0.1,1.2,0.2,2.4,0.2h9.8     c2.5,0,4.4-0.5,5.9-1.4l-3.1,8.3h-19.8c-2.9-0.1-4.7-0.1-5.4-0.2c-0.7-0.1-1.4-0.3-2.1-0.6c-1.3-0.6-2.4-1.6-3.1-2.9     c-0.6-1.2-0.9-2.4-0.9-3.6c0-0.8,0.2-2,0.6-3.8l5.2-22c0.8-3.3,2.4-5.7,4.7-7c1.7-1,3.7-1.5,5.9-1.5c0.5,0,1.5,0,2.9,0H368.1z"></path>
			<path class="st0" d="M385.9,23.3h18.7c1.6,0,2.9,0.1,3.9,0.3c2.2,0.4,3.9,1.7,5.1,3.7c0.8,1.4,1.2,2.9,1.2,4.5     c0,1-0.2,2.2-0.5,3.6L409.3,56c-0.4,1.8-0.9,3.1-1.3,4c-0.7,1.4-1.8,2.5-3.1,3.4c-1.4,1-3.9,1.6-7.5,1.6h-19.6     c-1.8,0-3.2-0.1-4.1-0.2c-2-0.3-3.6-1.5-4.8-3.6c-0.7-1.3-1-2.7-1-4.3c0-0.9,0.2-2.2,0.7-4l4.9-20.5c0.5-2,1-3.5,1.7-4.6     C376.8,24.8,380.4,23.2,385.9,23.3z M387.7,34.2l-4.8,20.2c-0.3,1.2-0.4,1.8-0.4,2c0,0.7,0.3,1.2,1,1.5c0.4,0.2,1.2,0.3,2.3,0.3     h5.5c1.2,0,2-0.2,2.4-0.5c0.4-0.4,0.7-1.5,1.1-3.1l4.8-20.2c0.1-0.5,0.2-0.9,0.3-1.1c0.1-0.5,0.2-0.9,0.2-1.3     c0-1.2-1-1.7-2.8-1.7h-5.4c-1.4,0-2.3,0.2-2.8,0.6C388.6,31.3,388.2,32.4,387.7,34.2z"></path>
			<path class="st0" d="M444.2,46.1l12.1-22.8h20.5c-0.5,0.8-0.8,1.4-1,1.8c-0.6,1.1-1.2,2.9-1.8,5.4l-6.9,29.1     c-0.3,1.1-0.4,2.2-0.4,3.3c0,0.6,0.1,1.4,0.4,2.2h-17.2c0.5-0.8,0.8-1.4,1-1.8c0.6-1.1,1.2-2.9,1.8-5.4l6.1-25.8L441.3,65h-10.5     l-2-32.8l-6.5,27.3c-0.3,1.1-0.4,2.2-0.4,3.3c0,0.6,0.1,1.4,0.4,2.2h-8.8c0.5-0.8,0.8-1.4,1-1.8c0.6-1.1,1.2-2.9,1.8-5.4     l6.9-29.1c0.2-1,0.4-2.1,0.4-3.3c0-0.6-0.1-1.4-0.4-2.2h19.4L444.2,46.1z"></path>
		</g>
		<g>
			<path class="st0" d="M490.3,59.3h-6.4c7.4-10,7.4-20.1,0-30.2h6.4C496.6,39.2,496.6,49.2,490.3,59.3z"></path>
		</g>
		<g>
			<path class="st0" d="M505.9,65h-8.8c10.2-13.9,10.2-27.8,0-41.8h8.8C514.6,37.3,514.6,51.2,505.9,65z"></path>
		</g>
		<g>
			<path class="st0" d="M521.7,72.6h-12c13.9-18.9,13.9-37.8,0-56.9h12C533.5,34.8,533.5,53.7,521.7,72.6z"></path>
		</g>
	</g>
</g>
</svg>
